<?xml version="1.0" standalone="no"?>
<!DOCTYPE svg PUBLIC "-//W3C//DTD SVG 20010904//EN"
 "http://www.w3.org/TR/2001/REC-SVG-20010904/DTD/svg10.dtd">
<svg version="1.0" xmlns="http://www.w3.org/2000/svg"
 width="248.000000pt" height="260.000000pt" viewBox="0 0 248.000000 260.000000"
 preserveAspectRatio="xMidYMid meet">

<g transform="translate(0.000000,260.000000) scale(0.100000,-0.100000)"
fill="#000000" stroke="none">
<path d="M0 1300 l0 -1300 1240 0 1240 0 0 1300 0 1300 -1240 0 -1240 0 0
-1300z m1818 930 l531 -305 1 -625 0 -625 -535 -308 c-294 -169 -539 -307
-545 -307 -6 0 -252 138 -546 307 l-534 307 0 626 0 625 533 307 c292 169 539
306 548 305 9 -1 255 -139 547 -307z"/>
<path d="M780 2136 l-475 -273 0 -562 0 -562 470 -271 c259 -149 479 -273 490
-275 13 -2 195 97 495 270 l475 274 3 555 c2 519 1 556 -15 570 -27 24 -941
548 -956 548 -6 0 -226 -123 -487 -274z m912 -43 c227 -130 419 -241 425 -247
10 -9 -24 -33 -140 -100 -83 -48 -192 -111 -242 -140 -49 -29 -175 -100 -279
-159 l-189 -107 -429 247 c-271 156 -425 250 -419 256 16 16 835 486 848 486
7 1 199 -105 425 -236z m-882 -568 l419 -240 1 -497 c0 -274 -2 -498 -4 -498
-3 0 -195 109 -428 243 l-423 244 -3 497 c-1 332 1 497 8 494 5 -1 199 -111
430 -243z m1358 -252 l-3 -497 -420 -243 c-231 -133 -426 -242 -432 -242 -10
-1 -13 104 -13 492 l0 492 188 109 c103 60 239 138 302 174 63 36 171 98 240
138 69 40 128 73 133 74 4 0 6 -224 5 -497z"/>
</g>
</svg>
